<?xml version="1.0"?>
<!-- Generated by SVGo -->
<svg width="167.526mm" height="158.618mm"
     viewBox="0.000 0.000 167.526 158.618"
     xmlns="http://www.w3.org/2000/svg" 
     xmlns:xlink="http://www.w3.org/1999/xlink">
<polygon points="158.526,5.000 158.840,5.012 159.152,5.049 159.460,5.111 159.762,5.196 160.057,5.304 160.342,5.436 160.616,5.589 160.877,5.764 161.124,5.958 161.354,6.172 161.568,6.402 161.762,6.649 161.937,6.910 162.090,7.184 162.222,7.469 162.330,7.764 162.416,8.066 162.477,8.374 162.514,8.686 162.526,9.000 162.526,149.618 162.514,149.932 162.477,150.244 162.416,150.552 162.330,150.854 162.222,151.149 162.090,151.434 161.937,151.708 161.762,151.969 161.568,152.216 161.354,152.447 161.124,152.660 160.877,152.854 160.616,153.029 160.342,153.182 160.057,153.314 159.762,153.422 159.460,153.508 159.152,153.569 158.840,153.606 158.526,153.618 9.000,153.618 8.686,153.606 8.374,153.569 8.066,153.508 7.764,153.422 7.469,153.314 7.184,153.182 6.910,153.029 6.649,152.854 6.402,152.660 6.172,152.447 5.958,152.216 5.764,151.969 5.589,151.708 5.436,151.434 5.304,151.149 5.196,150.854 5.111,150.552 5.049,150.244 5.012,149.932 5.000,149.618 5.000,9.000 5.012,8.686 5.049,8.374 5.111,8.066 5.196,7.764 5.304,7.469 5.436,7.184 5.589,6.910 5.764,6.649 5.958,6.402 6.172,6.172 6.402,5.958 6.649,5.764 6.910,5.589 7.184,5.436 7.469,5.304 7.764,5.196 8.066,5.111 8.374,5.049 8.686,5.012 9.000,5.000" style="fill:none;stroke-width:0.2;stroke:black"/>
<polygon points="158.876,7.050 159.370,7.128 159.816,7.356 160.170,7.710 160.398,8.156 160.476,8.650 160.398,9.144 160.170,9.590 159.816,9.944 159.370,10.172 158.876,10.250 158.382,10.172 157.936,9.944 157.582,9.590 157.354,9.144 157.276,8.650 157.354,8.156 157.582,7.710 157.936,7.356 158.382,7.128" style="fill:none;stroke-width:0.2;stroke:black"/>
<polygon points="158.876,148.368 159.370,148.446 159.816,148.674 160.170,149.028 160.398,149.474 160.476,149.968 160.398,150.463 160.170,150.909 159.816,151.263 159.370,151.490 158.876,151.568 158.382,151.490 157.936,151.263 157.582,150.909 157.354,150.463 157.276,149.968 157.354,149.474 157.582,149.028 157.936,148.674 158.382,148.446" style="fill:none;stroke-width:0.2;stroke:black"/>
<polygon points="8.650,148.368 9.144,148.446 9.590,148.674 9.944,149.028 10.172,149.474 10.250,149.968 10.172,150.463 9.944,150.909 9.590,151.263 9.144,151.490 8.650,151.568 8.156,151.490 7.710,151.263 7.356,150.909 7.128,150.463 7.050,149.968 7.128,149.474 7.356,149.028 7.710,148.674 8.156,148.446" style="fill:none;stroke-width:0.2;stroke:black"/>
<polygon points="8.650,7.050 9.144,7.128 9.590,7.356 9.944,7.710 10.172,8.156 10.250,8.650 10.172,9.144 9.944,9.590 9.590,9.944 9.144,10.172 8.650,10.250 8.156,10.172 7.710,9.944 7.356,9.590 7.128,9.144 7.050,8.650 7.128,8.156 7.356,7.710 7.710,7.356 8.156,7.128" style="fill:none;stroke-width:0.2;stroke:black"/>
<polygon points="15.698,68.710 15.698,63.798 18.064,63.798 18.064,68.705" style="fill:none;stroke-width:0.2;stroke:black"/>
<polygon points="18.302,87.760 18.302,82.848 20.668,82.848 20.668,87.755" style="fill:none;stroke-width:0.2;stroke:black"/>
<polygon points="14.025,27.925 14.025,15.425 29.325,15.425 29.325,27.925" style="fill:none;stroke-width:0.2;stroke:black"/>
<polygon points="18.788,46.975 18.788,34.475 34.087,34.475 34.087,46.975" style="fill:none;stroke-width:0.2;stroke:black"/>
<polygon points="21.169,66.025 21.169,53.525 36.469,53.525 36.469,66.025" style="fill:none;stroke-width:0.2;stroke:black"/>
<polygon points="25.931,85.075 25.931,72.575 41.231,72.575 41.231,85.075" style="fill:none;stroke-width:0.2;stroke:black"/>
<polygon points="39.574,68.705 39.574,63.798 41.940,63.798 41.940,68.705" style="fill:none;stroke-width:0.2;stroke:black"/>
<polygon points="33.075,27.925 33.075,15.425 48.375,15.425 48.375,27.925" style="fill:none;stroke-width:0.2;stroke:black"/>
<polygon points="46.494,87.755 46.494,82.848 48.860,82.848 48.860,87.755" style="fill:none;stroke-width:0.2;stroke:black"/>
<polygon points="42.600,46.975 42.600,34.475 57.900,34.475 57.900,46.975" style="fill:none;stroke-width:0.2;stroke:black"/>
<polygon points="47.363,66.025 47.363,53.525 62.663,53.525 62.663,66.025" style="fill:none;stroke-width:0.2;stroke:black"/>
<polygon points="52.125,27.925 52.125,15.425 67.425,15.425 67.425,27.925" style="fill:none;stroke-width:0.2;stroke:black"/>
<polygon points="56.888,85.075 56.888,72.575 72.188,72.575 72.188,85.075" style="fill:none;stroke-width:0.2;stroke:black"/>
<polygon points="61.650,46.975 61.650,34.475 76.950,34.475 76.950,46.975" style="fill:none;stroke-width:0.2;stroke:black"/>
<polygon points="66.412,66.025 66.412,53.525 81.713,53.525 81.713,66.025" style="fill:none;stroke-width:0.2;stroke:black"/>
<polygon points="71.175,27.925 71.175,15.425 86.475,15.425 86.475,27.925" style="fill:none;stroke-width:0.2;stroke:black"/>
<polygon points="75.938,85.075 75.938,72.575 91.238,72.575 91.238,85.075" style="fill:none;stroke-width:0.2;stroke:black"/>
<polygon points="80.700,46.975 80.700,34.475 96.000,34.475 96.000,46.975" style="fill:none;stroke-width:0.2;stroke:black"/>
<polygon points="85.462,66.025 85.462,53.525 100.763,53.525 100.763,66.025" style="fill:none;stroke-width:0.2;stroke:black"/>
<polygon points="90.225,27.925 90.225,15.425 105.525,15.425 105.525,27.925" style="fill:none;stroke-width:0.2;stroke:black"/>
<polygon points="94.987,85.075 94.987,72.575 110.288,72.575 110.288,85.075" style="fill:none;stroke-width:0.2;stroke:black"/>
<polygon points="99.750,46.975 99.750,34.475 115.050,34.475 115.050,46.975" style="fill:none;stroke-width:0.2;stroke:black"/>
<polygon points="104.512,66.025 104.512,53.525 119.812,53.525 119.812,66.025" style="fill:none;stroke-width:0.2;stroke:black"/>
<polygon points="109.275,27.925 109.275,15.425 124.575,15.425 124.575,27.925" style="fill:none;stroke-width:0.2;stroke:black"/>
<polygon points="125.942,122.194 112.692,114.544 106.442,125.369 119.692,133.019" style="fill:none;stroke-width:0.2;stroke:black"/>
<polygon points="114.037,85.075 114.037,72.575 129.338,72.575 129.338,85.075" style="fill:none;stroke-width:0.2;stroke:black"/>
<polygon points="118.800,46.975 118.800,34.475 134.100,34.475 134.100,46.975" style="fill:none;stroke-width:0.2;stroke:black"/>
<polygon points="135.467,105.696 122.217,98.046 115.967,108.872 129.217,116.522" style="fill:none;stroke-width:0.2;stroke:black"/>
<polygon points="138.729,140.706 134.480,138.252 133.297,140.301 137.551,142.757" style="fill:none;stroke-width:0.2;stroke:black"/>
<polygon points="123.562,66.025 123.562,53.525 138.863,53.525 138.863,66.025" style="fill:none;stroke-width:0.2;stroke:black"/>
<polygon points="128.325,27.925 128.325,15.425 143.625,15.425 143.625,27.925" style="fill:none;stroke-width:0.2;stroke:black"/>
<polygon points="146.690,121.558 135.864,115.308 128.214,128.558 139.040,134.808" style="fill:none;stroke-width:0.2;stroke:black"/>
<polygon points="133.088,85.075 133.088,72.575 148.388,72.575 148.388,85.075" style="fill:none;stroke-width:0.2;stroke:black"/>
<polygon points="152.825,116.291 148.576,113.837 147.393,115.886 151.642,118.340" style="fill:none;stroke-width:0.2;stroke:black"/>
</svg>
