<?xml version="1.0" encoding="UTF-8" standalone="no"?>
<!DOCTYPE svg PUBLIC "-//W3C//DTD SVG 20010904//EN"
              "http://www.w3.org/TR/2001/REC-SVG-20010904/DTD/svg10.dtd">

<svg xmlns="http://www.w3.org/2000/svg"
     width="6.57778in" height="6.22222in"
     viewBox="0 0 592 560">
  <path id="case"
        fill="none" stroke="black" stroke-width="1"
        d="M 395.35,347.45
           C 395.35,347.45 395.90,346.48 395.90,346.48
             395.90,346.48 396.36,345.47 396.36,345.47
             396.36,345.47 396.75,344.43 396.75,344.43
             396.75,344.43 397.05,343.36 397.05,343.36
             397.05,343.36 397.27,342.27 397.27,342.27
             397.27,342.27 397.40,341.16 397.40,341.16
             397.40,341.16 397.44,340.05 397.44,340.05
             397.44,340.05 397.40,338.95 397.40,338.95
             397.40,338.95 397.27,337.85 397.27,337.85
             397.27,337.85 397.05,336.76 397.05,336.76
             397.05,336.76 396.75,335.69 396.75,335.69
             396.75,335.69 396.37,334.64 396.37,334.64
             396.37,334.64 395.90,333.63 395.90,333.63
             395.90,333.63 395.36,332.66 395.36,332.66
             395.36,332.66 394.74,331.74 394.74,331.74
             394.74,331.74 394.05,330.86 394.05,330.86
             394.05,330.86 393.30,330.05 393.30,330.05
             393.30,330.05 392.48,329.29 392.48,329.29
             392.48,329.29 391.60,328.60 391.60,328.60
             391.60,328.60 390.68,327.98 390.68,327.98
             390.68,327.98 389.71,327.44 389.71,327.44
             389.71,327.44 388.70,326.97 388.70,326.97
             388.70,326.97 387.66,326.59 387.66,326.59
             387.66,326.59 386.59,326.29 386.59,326.29
             386.59,326.29 385.50,326.07 385.50,326.07
             385.50,326.07 384.39,325.94 384.39,325.94
             384.39,325.94 383.28,325.89 383.28,325.89
             383.28,325.89 380.79,325.89 380.79,325.89
             380.79,325.89 32.45,325.73 32.45,325.73
             32.45,325.73 31.88,325.70 31.88,325.70
             31.88,325.70 30.77,325.66 30.77,325.66
             30.77,325.66 29.66,325.53 29.66,325.53
             29.66,325.53 28.57,325.31 28.57,325.31
             28.57,325.31 27.50,325.01 27.50,325.01
             27.50,325.01 26.46,324.63 26.46,324.63
             26.46,324.63 25.45,324.16 25.45,324.16
             25.45,324.16 24.48,323.62 24.48,323.62
             24.48,323.62 23.55,323.00 23.55,323.00
             23.55,323.00 22.68,322.31 22.68,322.31
             22.68,322.31 21.86,321.56 21.86,321.56
             21.86,321.56 21.10,320.74 21.10,320.74
             21.10,320.74 20.42,319.86 20.42,319.86
             20.42,319.86 19.80,318.94 19.80,318.94
             19.80,318.94 19.26,317.97 19.26,317.97
             19.26,317.97 18.79,316.96 18.79,316.96
             18.79,316.96 18.41,315.91 18.41,315.91
             18.41,315.91 18.10,314.85 18.10,314.85
             18.10,314.85 17.89,313.75 17.89,313.75
             17.89,313.75 17.75,312.65 17.75,312.65
             17.75,312.65 17.71,311.54 17.71,311.54
             17.71,311.54 17.71,31.88 17.71,31.88
             17.71,31.88 17.75,30.76 17.75,30.76
             17.75,30.76 17.88,29.66 17.88,29.66
             17.88,29.66 18.10,28.57 18.10,28.57
             18.10,28.57 18.40,27.50 18.40,27.50
             18.40,27.50 18.78,26.45 18.78,26.45
             18.78,26.45 19.25,25.44 19.25,25.44
             19.25,25.44 19.79,24.47 19.79,24.47
             19.79,24.47 20.41,23.55 20.41,23.55
             20.41,23.55 21.10,22.67 21.10,22.67
             21.10,22.67 21.86,21.86 21.86,21.86
             21.86,21.86 22.67,21.10 22.67,21.10
             22.67,21.10 23.55,20.41 23.55,20.41
             23.55,20.41 24.47,19.79 24.47,19.79
             24.47,19.79 25.44,19.25 25.44,19.25
             25.44,19.25 26.45,18.79 26.45,18.79
             26.45,18.79 27.49,18.40 27.49,18.40
             27.49,18.40 28.56,18.10 28.56,18.10
             28.56,18.10 29.65,17.88 29.65,17.88
             29.65,17.88 30.76,17.75 30.76,17.75
             30.76,17.75 31.87,17.71 31.87,17.71
             31.87,17.71 560.13,17.71 560.13,17.71
             560.13,17.71 561.24,17.75 561.24,17.75
             561.24,17.75 562.35,17.88 562.35,17.88
             562.35,17.88 563.44,18.10 563.44,18.10
             563.44,18.10 564.51,18.40 564.51,18.40
             564.51,18.40 565.55,18.79 565.55,18.79
             565.55,18.79 566.56,19.25 566.56,19.25
             566.56,19.25 567.53,19.79 567.53,19.79
             567.53,19.79 568.45,20.41 568.45,20.41
             568.45,20.41 569.33,21.10 569.33,21.10
             569.33,21.10 570.15,21.86 570.15,21.86
             570.15,21.86 570.90,22.67 570.90,22.67
             570.90,22.67 571.59,23.55 571.59,23.55
             571.59,23.55 572.21,24.47 572.21,24.47
             572.21,24.47 572.75,25.44 572.75,25.44
             572.75,25.44 573.22,26.45 573.22,26.45
             573.22,26.45 573.60,27.50 573.60,27.50
             573.60,27.50 573.90,28.57 573.90,28.57
             573.90,28.57 574.12,29.66 574.12,29.66
             574.12,29.66 574.25,30.76 574.25,30.76
             574.25,30.76 574.29,31.88 574.29,31.88
             574.29,31.88 574.32,403.92 574.32,403.92
             574.32,403.92 574.28,405.15 574.28,405.15
             574.28,405.15 574.15,406.26 574.15,406.26
             574.15,406.26 573.93,407.35 573.93,407.35
             573.93,407.35 573.63,408.42 573.63,408.42
             573.63,408.42 573.25,409.46 573.25,409.46
             573.25,409.46 572.78,410.47 572.78,410.47
             572.78,410.47 572.27,411.40 572.27,411.40
             572.27,411.40 498.00,540.36 498.00,540.36
             498.00,540.36 494.73,542.82 494.73,542.82
             494.73,542.82 490.55,544.73 490.55,544.73
             490.55,544.73 487.00,545.55 487.00,545.55
             487.00,545.55 483.09,545.36 483.09,545.36
             483.09,545.36 479.45,544.45 479.45,544.45
             479.45,544.45 477.55,543.27 477.55,543.27
             477.55,543.27 342.75,465.75 342.75,465.75
             342.75,465.75 340.94,463.50 340.94,463.50
             340.94,463.50 338.88,460.81 338.88,460.81
             338.88,460.81 337.63,457.75 337.63,457.75
             337.63,457.75 336.94,454.50 336.94,454.50
             336.94,454.50 336.88,451.19 336.88,451.19
             336.88,451.19 337.94,448.13 337.94,448.13
             337.94,448.13 339.13,445.25 339.13,445.25
             339.13,445.25 395.10,347.88 395.10,347.88
             395.10,347.88 395.35,347.45 395.35,347.45 Z
           M 559.98,24.21
           C 559.98,24.21 558.26,25.09 558.26,25.09
             558.26,25.09 556.88,26.46 556.88,26.46
             556.88,26.46 556.01,28.19 556.01,28.19
             556.01,28.19 555.70,30.11 555.70,30.11
             555.70,30.11 556.01,32.02 556.01,32.02
             556.01,32.02 556.88,33.75 556.88,33.75
             556.88,33.75 558.26,35.12 558.26,35.12
             558.26,35.12 559.98,36.00 559.98,36.00
             559.98,36.00 561.90,36.30 561.90,36.30
             561.90,36.30 563.81,36.00 563.81,36.00
             563.81,36.00 565.54,35.12 565.54,35.12
             565.54,35.12 566.91,33.75 566.91,33.75
             566.91,33.75 567.79,32.02 567.79,32.02
             567.79,32.02 568.10,30.11 568.10,30.11
             568.10,30.11 567.79,28.19 567.79,28.19
             567.79,28.19 566.91,26.46 566.91,26.46
             566.91,26.46 565.54,25.09 565.54,25.09
             565.54,25.09 563.81,24.21 563.81,24.21
             563.81,24.21 561.90,23.91 561.90,23.91
             561.90,23.91 559.98,24.21 559.98,24.21 Z
           M 558.20,397.91
           C 558.20,397.91 556.47,398.79 556.47,398.79
             556.47,398.79 555.10,400.16 555.10,400.16
             555.10,400.16 554.22,401.89 554.22,401.89
             554.22,401.89 553.91,403.80 553.91,403.80
             553.91,403.80 554.22,405.72 554.22,405.72
             554.22,405.72 555.10,407.45 555.10,407.45
             555.10,407.45 556.47,408.82 556.47,408.82
             556.47,408.82 558.20,409.70 558.20,409.70
             558.20,409.70 560.11,410.00 560.11,410.00
             560.11,410.00 562.03,409.70 562.03,409.70
             562.03,409.70 563.76,408.82 563.76,408.82
             563.76,408.82 565.13,407.45 565.13,407.45
             565.13,407.45 566.00,405.72 566.00,405.72
             566.00,405.72 566.31,403.80 566.31,403.80
             566.31,403.80 566.00,401.89 566.00,401.89
             566.00,401.89 565.13,400.16 565.13,400.16
             565.13,400.16 563.76,398.79 563.76,398.79
             563.76,398.79 562.03,397.91 562.03,397.91
             562.03,397.91 560.11,397.61 560.11,397.61
             560.11,397.61 558.20,397.91 558.20,397.91 Z
           M 347.65,448.00
           C 347.65,448.00 345.92,448.88 345.92,448.88
             345.92,448.88 344.55,450.25 344.55,450.25
             344.55,450.25 343.67,451.98 343.67,451.98
             343.67,451.98 343.37,453.89 343.37,453.89
             343.37,453.89 343.67,455.81 343.67,455.81
             343.67,455.81 344.55,457.54 344.55,457.54
             344.55,457.54 345.92,458.91 345.92,458.91
             345.92,458.91 347.65,459.79 347.65,459.79
             347.65,459.79 349.57,460.09 349.57,460.09
             349.57,460.09 351.48,459.79 351.48,459.79
             351.48,459.79 353.21,458.91 353.21,458.91
             353.21,458.91 354.58,457.54 354.58,457.54
             354.58,457.54 355.46,455.81 355.46,455.81
             355.46,455.81 355.76,453.89 355.76,453.89
             355.76,453.89 355.46,451.98 355.46,451.98
             355.46,451.98 354.58,450.25 354.58,450.25
             354.58,450.25 353.21,448.88 353.21,448.88
             353.21,448.88 351.48,448.00 351.48,448.00
             351.48,448.00 349.57,447.70 349.57,447.70
             349.57,447.70 347.65,448.00 347.65,448.00 Z
           M 483.98,526.00
           C 483.98,526.00 482.26,526.88 482.26,526.88
             482.26,526.88 480.88,528.25 480.88,528.25
             480.88,528.25 480.01,529.98 480.01,529.98
             480.01,529.98 479.70,531.89 479.70,531.89
             479.70,531.89 480.01,533.81 480.01,533.81
             480.01,533.81 480.88,535.54 480.88,535.54
             480.88,535.54 482.26,536.91 482.26,536.91
             482.26,536.91 483.98,537.79 483.98,537.79
             483.98,537.79 485.90,538.09 485.90,538.09
             485.90,538.09 487.81,537.79 487.81,537.79
             487.81,537.79 489.54,536.91 489.54,536.91
             489.54,536.91 490.91,535.54 490.91,535.54
             490.91,535.54 491.79,533.81 491.79,533.81
             491.79,533.81 492.10,531.89 492.10,531.89
             492.10,531.89 491.79,529.98 491.79,529.98
             491.79,529.98 490.91,528.25 490.91,528.25
             490.91,528.25 489.54,526.88 489.54,526.88
             489.54,526.88 487.81,526.00 487.81,526.00
             487.81,526.00 485.90,525.70 485.90,525.70
             485.90,525.70 483.98,526.00 483.98,526.00 Z
           M 28.91,306.32
           C 28.91,306.32 27.18,307.20 27.18,307.20
             27.18,307.20 25.81,308.57 25.81,308.57
             25.81,308.57 24.94,310.30 24.94,310.30
             24.94,310.30 24.63,312.21 24.63,312.21
             24.63,312.21 24.94,314.13 24.94,314.13
             24.94,314.13 25.81,315.86 25.81,315.86
             25.81,315.86 27.18,317.23 27.18,317.23
             27.18,317.23 28.91,318.11 28.91,318.11
             28.91,318.11 30.83,318.32 30.83,318.32
             30.83,318.32 32.74,318.11 32.74,318.11
             32.74,318.11 34.47,317.23 34.47,317.23
             34.47,317.23 35.84,315.86 35.84,315.86
             35.84,315.86 36.72,314.13 36.72,314.13
             36.72,314.13 37.03,312.21 37.03,312.21
             37.03,312.21 36.72,310.30 36.72,310.30
             36.72,310.30 35.84,308.57 35.84,308.57
             35.84,308.57 34.47,307.20 34.47,307.20
             34.47,307.20 32.74,306.32 32.74,306.32
             32.74,306.32 30.83,306.02 30.83,306.02
             30.83,306.02 28.91,306.32 28.91,306.32 Z
           M 28.19,24.21
           C 28.19,24.21 26.46,25.09 26.46,25.09
             26.46,25.09 25.09,26.46 25.09,26.46
             25.09,26.46 24.21,28.19 24.21,28.19
             24.21,28.19 23.90,30.11 23.90,30.11
             23.90,30.11 24.21,32.02 24.21,32.02
             24.21,32.02 25.09,33.75 25.09,33.75
             25.09,33.75 26.46,35.12 26.46,35.12
             26.46,35.12 28.19,36.00 28.19,36.00
             28.19,36.00 30.10,36.30 30.10,36.30
             30.10,36.30 32.02,36.00 32.02,36.00
             32.02,36.00 33.74,35.12 33.74,35.12
             33.74,35.12 35.12,33.75 35.12,33.75
             35.12,33.75 35.99,32.02 35.99,32.02
             35.99,32.02 36.30,30.11 36.30,30.11
             36.30,30.11 35.99,28.19 35.99,28.19
             35.99,28.19 35.12,26.46 35.12,26.46
             35.12,26.46 33.74,25.09 33.74,25.09
             33.74,25.09 32.02,24.21 32.02,24.21
             32.02,24.21 30.10,23.91 30.10,23.91
             30.10,23.91 28.19,24.21 28.19,24.21 Z" />
  <path id="support top"
        fill="none" stroke="black" stroke-width="1"
        d="M 547.88,410.39
           C 547.88,410.39 540.75,423.50 540.75,423.50
             540.75,423.50 519.63,411.00 519.63,411.00
             519.63,411.00 512.50,424.13 512.50,424.13
             512.50,424.13 521.58,429.36 521.58,429.36
             521.58,429.36 493.00,478.75 493.00,478.75
             493.00,478.75 497.82,498.32 497.82,498.32
             497.82,498.32 491.39,509.82 491.39,509.82
             491.39,509.82 466.23,495.93 466.23,495.93
             466.23,495.93 424.45,473.09 424.45,473.09
             424.45,473.09 375.27,444.27 375.27,444.27
             375.27,444.27 433.09,344.18 433.09,344.18
             433.09,344.18 547.88,410.39 547.88,410.39 Z
           M 528.00,303.77
           C 528.00,303.77 175.51,303.76 175.51,303.76
             175.51,303.76 175.50,316.42 175.50,316.42
             175.50,316.42 160.75,316.42 160.75,316.42
             160.75,316.42 160.73,303.70 160.73,303.70
             160.73,303.70 90.36,303.70 90.36,303.70
             90.36,303.70 74.67,316.67 74.67,316.67
             74.67,316.67 62.33,316.67 62.33,316.67
             62.33,316.67 62.45,284.48 62.45,284.48
             62.45,284.48 89.45,284.58 89.45,284.58
             89.45,284.58 89.36,234.68 89.36,234.68
             89.36,234.68 73.44,234.75 73.44,234.75
             73.44,234.75 65.19,248.24 65.19,248.24
             65.19,248.24 53.55,248.27 53.55,248.27
             53.55,248.27 53.73,218.09 53.73,218.09
             53.73,218.09 72.73,218.18 72.73,218.18
             72.73,218.18 73.09,187.27 73.09,187.27
             73.09,187.27 64.18,167.64 64.18,167.64
             64.18,167.64 64.18,119.82 64.18,119.82
             64.18,119.82 47.27,100.00 47.27,100.00
             47.27,100.00 47.09,52.18 47.09,52.18
             47.09,52.18 510.18,52.18 510.18,52.18
             510.18,52.18 510.18,100.55 510.18,100.55
             510.18,100.55 476.73,100.55 476.73,100.55
             476.73,100.55 476.75,186.75 476.75,186.75
             476.75,186.75 493.82,186.67 493.82,186.67
             493.82,186.67 493.88,253.82 493.88,253.82
             493.88,253.82 527.98,253.82 527.98,253.82
             527.98,253.82 528.00,303.77 528.00,303.77 Z" />
</svg>
