<?xml version="1.0" encoding="UTF-8" standalone="no"?>
<!DOCTYPE svg PUBLIC "-//W3C//DTD SVG 20010904//EN"
              "http://www.w3.org/TR/2001/REC-SVG-20010904/DTD/svg10.dtd">

<svg xmlns="http://www.w3.org/2000/svg"
     width="6.57778in" height="6.22222in"
     viewBox="0 0 592 560">
  <path id="support stand"
        fill="none" stroke="black" stroke-width="1"
        d="M 272.66,155.91
           C 272.66,155.91 284.88,155.81 284.88,155.81
             284.88,155.81 284.88,166.45 284.88,166.45
             284.88,166.45 305.82,166.44 305.82,166.44
             305.82,166.44 305.78,188.60 305.78,188.60
             305.78,188.60 301.73,188.60 301.73,188.60
             301.73,188.60 301.74,198.00 301.74,198.00
             301.74,198.00 289.53,198.06 289.53,198.06
             289.53,198.06 289.53,188.59 289.53,188.59
             289.53,188.59 266.13,188.56 266.13,188.56
             266.13,188.56 266.06,166.44 266.06,166.44
             266.06,166.44 272.65,166.45 272.65,166.45
             272.65,166.45 272.66,155.91 272.66,155.91 Z" />
</svg>
