<?xml version="1.0"?>
<!-- Generated by SVGo -->
<svg width="167.644mm" height="158.786mm"
     viewBox="0.000 0.000 167.644 158.786"
     xmlns="http://www.w3.org/2000/svg" 
     xmlns:xlink="http://www.w3.org/1999/xlink">
<polygon points="158.644,5.000 158.958,5.012 159.270,5.049 159.578,5.111 159.880,5.196 160.175,5.304 160.460,5.436 160.734,5.589 160.995,5.764 161.242,5.958 161.473,6.172 161.686,6.402 161.880,6.649 162.055,6.910 162.208,7.184 162.340,7.469 162.449,7.764 162.534,8.066 162.595,8.374 162.632,8.686 162.644,9.000 162.644,149.786 162.632,150.100 162.595,150.412 162.534,150.720 162.449,151.022 162.340,151.317 162.208,151.602 162.055,151.876 161.880,152.138 161.686,152.384 161.473,152.615 161.242,152.828 160.995,153.022 160.734,153.197 160.460,153.350 160.175,153.482 159.880,153.591 159.578,153.676 159.270,153.737 158.958,153.774 158.644,153.786 9.000,153.786 8.686,153.774 8.374,153.737 8.066,153.676 7.764,153.591 7.469,153.482 7.184,153.350 6.910,153.197 6.649,153.022 6.402,152.828 6.172,152.615 5.958,152.384 5.764,152.138 5.589,151.876 5.436,151.602 5.304,151.317 5.196,151.022 5.111,150.720 5.049,150.412 5.012,150.100 5.000,149.786 5.000,9.000 5.012,8.686 5.049,8.374 5.111,8.066 5.196,7.764 5.304,7.469 5.436,7.184 5.589,6.910 5.764,6.649 5.958,6.402 6.172,6.172 6.402,5.958 6.649,5.764 6.910,5.589 7.184,5.436 7.469,5.304 7.764,5.196 8.066,5.111 8.374,5.049 8.686,5.012 9.000,5.000" style="fill:none;stroke-width:0.2;stroke:black"/>
<polygon points="158.944,7.150 159.423,7.226 159.855,7.446 160.198,7.789 160.418,8.221 160.494,8.700 160.418,9.179 160.198,9.611 159.855,9.954 159.423,10.174 158.944,10.250 158.465,10.174 158.033,9.954 157.690,9.611 157.470,9.179 157.394,8.700 157.470,8.221 157.690,7.789 158.033,7.446 158.465,7.226" style="fill:none;stroke-width:0.2;stroke:black"/>
<polygon points="158.944,148.536 159.423,148.612 159.855,148.832 160.198,149.175 160.418,149.607 160.494,150.086 160.418,150.565 160.198,150.997 159.855,151.340 159.423,151.561 158.944,151.636 158.465,151.561 158.033,151.340 157.690,150.997 157.470,150.565 157.394,150.086 157.470,149.607 157.690,149.175 158.033,148.832 158.465,148.612" style="fill:none;stroke-width:0.2;stroke:black"/>
<polygon points="8.700,148.536 9.179,148.612 9.611,148.832 9.954,149.175 10.174,149.607 10.250,150.086 10.174,150.565 9.954,150.997 9.611,151.340 9.179,151.561 8.700,151.636 8.221,151.561 7.789,151.340 7.446,150.997 7.226,150.565 7.150,150.086 7.226,149.607 7.446,149.175 7.789,148.832 8.221,148.612" style="fill:none;stroke-width:0.2;stroke:black"/>
<polygon points="8.700,7.150 9.179,7.226 9.611,7.446 9.954,7.789 10.174,8.221 10.250,8.700 10.174,9.179 9.954,9.611 9.611,9.954 9.179,10.174 8.700,10.250 8.221,10.174 7.789,9.954 7.446,9.611 7.226,9.179 7.150,8.700 7.226,8.221 7.446,7.789 7.789,7.446 8.221,7.226" style="fill:none;stroke-width:0.2;stroke:black"/>
<polygon points="15.798,68.710 15.798,63.898 18.064,63.898 18.064,68.705" style="fill:none;stroke-width:0.2;stroke:black"/>
<polygon points="18.402,87.760 18.402,82.948 20.668,82.948 20.668,87.755" style="fill:none;stroke-width:0.2;stroke:black"/>
<polygon points="14.125,27.925 14.125,15.525 29.325,15.525 29.325,27.925" style="fill:none;stroke-width:0.2;stroke:black"/>
<polygon points="18.888,46.975 18.888,34.575 34.087,34.575 34.087,46.975" style="fill:none;stroke-width:0.2;stroke:black"/>
<polygon points="21.269,66.025 21.269,53.625 36.469,53.625 36.469,66.025" style="fill:none;stroke-width:0.2;stroke:black"/>
<polygon points="26.031,85.075 26.031,72.675 41.231,72.675 41.231,85.075" style="fill:none;stroke-width:0.2;stroke:black"/>
<polygon points="39.674,68.705 39.674,63.898 41.940,63.898 41.940,68.705" style="fill:none;stroke-width:0.2;stroke:black"/>
<polygon points="33.175,27.925 33.175,15.525 48.375,15.525 48.375,27.925" style="fill:none;stroke-width:0.2;stroke:black"/>
<polygon points="46.594,87.755 46.594,82.948 48.860,82.948 48.860,87.755" style="fill:none;stroke-width:0.2;stroke:black"/>
<polygon points="42.700,46.975 42.700,34.575 57.900,34.575 57.900,46.975" style="fill:none;stroke-width:0.2;stroke:black"/>
<polygon points="47.462,66.025 47.462,53.625 62.663,53.625 62.663,66.025" style="fill:none;stroke-width:0.2;stroke:black"/>
<polygon points="52.225,27.925 52.225,15.525 67.425,15.525 67.425,27.925" style="fill:none;stroke-width:0.2;stroke:black"/>
<polygon points="56.988,85.075 56.988,72.675 72.188,72.675 72.188,85.075" style="fill:none;stroke-width:0.2;stroke:black"/>
<polygon points="61.750,46.975 61.750,34.575 76.950,34.575 76.950,46.975" style="fill:none;stroke-width:0.2;stroke:black"/>
<polygon points="66.513,66.025 66.513,53.625 81.712,53.625 81.712,66.025" style="fill:none;stroke-width:0.2;stroke:black"/>
<polygon points="71.275,27.925 71.275,15.525 86.475,15.525 86.475,27.925" style="fill:none;stroke-width:0.2;stroke:black"/>
<polygon points="76.038,85.075 76.038,72.675 91.237,72.675 91.237,85.075" style="fill:none;stroke-width:0.2;stroke:black"/>
<polygon points="80.800,46.975 80.800,34.575 96.000,34.575 96.000,46.975" style="fill:none;stroke-width:0.2;stroke:black"/>
<polygon points="85.562,66.025 85.562,53.625 100.762,53.625 100.762,66.025" style="fill:none;stroke-width:0.2;stroke:black"/>
<polygon points="90.325,27.925 90.325,15.525 105.525,15.525 105.525,27.925" style="fill:none;stroke-width:0.2;stroke:black"/>
<polygon points="95.088,85.075 95.088,72.675 110.287,72.675 110.287,85.075" style="fill:none;stroke-width:0.2;stroke:black"/>
<polygon points="99.850,46.975 99.850,34.575 115.050,34.575 115.050,46.975" style="fill:none;stroke-width:0.2;stroke:black"/>
<polygon points="104.612,66.025 104.612,53.625 119.812,53.625 119.812,66.025" style="fill:none;stroke-width:0.2;stroke:black"/>
<polygon points="109.375,27.925 109.375,15.525 124.575,15.525 124.575,27.925" style="fill:none;stroke-width:0.2;stroke:black"/>
<polygon points="125.892,122.281 112.728,114.681 106.528,125.419 119.692,133.019" style="fill:none;stroke-width:0.2;stroke:black"/>
<polygon points="114.138,85.075 114.138,72.675 129.338,72.675 129.338,85.075" style="fill:none;stroke-width:0.2;stroke:black"/>
<polygon points="118.900,46.975 118.900,34.575 134.100,34.575 134.100,46.975" style="fill:none;stroke-width:0.2;stroke:black"/>
<polygon points="135.417,105.783 122.253,98.183 116.053,108.922 129.217,116.522" style="fill:none;stroke-width:0.2;stroke:black"/>
<polygon points="138.679,140.792 134.516,138.389 133.383,140.351 137.551,142.757" style="fill:none;stroke-width:0.2;stroke:black"/>
<polygon points="123.662,66.025 123.662,53.625 138.862,53.625 138.862,66.025" style="fill:none;stroke-width:0.2;stroke:black"/>
<polygon points="128.425,27.925 128.425,15.525 143.625,15.525 143.625,27.925" style="fill:none;stroke-width:0.2;stroke:black"/>
<polygon points="146.640,121.644 135.901,115.444 128.301,128.608 139.040,134.808" style="fill:none;stroke-width:0.2;stroke:black"/>
<polygon points="133.188,85.075 133.188,72.675 148.387,72.675 148.387,85.075" style="fill:none;stroke-width:0.2;stroke:black"/>
<polygon points="152.775,116.377 148.612,113.974 147.479,115.936 151.642,118.340" style="fill:none;stroke-width:0.2;stroke:black"/>
</svg>
