<?xml version="1.0" encoding="UTF-8" standalone="no"?>
<!DOCTYPE svg PUBLIC "-//W3C//DTD SVG 20010904//EN"
              "http://www.w3.org/TR/2001/REC-SVG-20010904/DTD/svg10.dtd">

<svg xmlns="http://www.w3.org/2000/svg"
     width="6.57778in" height="6.22222in"
     viewBox="0 0 592 560">
  <path id="case"
        fill="none" stroke="black" stroke-width="1"
        d="M 395.35,347.45
           C 395.35,347.45 395.90,346.48 395.90,346.48
             395.90,346.48 396.36,345.47 396.36,345.47
             396.36,345.47 396.75,344.43 396.75,344.43
             396.75,344.43 397.05,343.36 397.05,343.36
             397.05,343.36 397.27,342.27 397.27,342.27
             397.27,342.27 397.40,341.16 397.40,341.16
             397.40,341.16 397.44,340.05 397.44,340.05
             397.44,340.05 397.40,338.95 397.40,338.95
             397.40,338.95 397.27,337.85 397.27,337.85
             397.27,337.85 397.05,336.76 397.05,336.76
             397.05,336.76 396.75,335.69 396.75,335.69
             396.75,335.69 396.37,334.64 396.37,334.64
             396.37,334.64 395.90,333.63 395.90,333.63
             395.90,333.63 395.36,332.66 395.36,332.66
             395.36,332.66 394.74,331.74 394.74,331.74
             394.74,331.74 394.05,330.86 394.05,330.86
             394.05,330.86 393.30,330.05 393.30,330.05
             393.30,330.05 392.48,329.29 392.48,329.29
             392.48,329.29 391.60,328.60 391.60,328.60
             391.60,328.60 390.68,327.98 390.68,327.98
             390.68,327.98 389.71,327.44 389.71,327.44
             389.71,327.44 388.70,326.97 388.70,326.97
             388.70,326.97 387.66,326.59 387.66,326.59
             387.66,326.59 386.59,326.29 386.59,326.29
             386.59,326.29 385.50,326.07 385.50,326.07
             385.50,326.07 384.39,325.94 384.39,325.94
             384.39,325.94 383.28,325.89 383.28,325.89
             383.28,325.89 380.79,325.89 380.79,325.89
             380.79,325.89 32.45,325.73 32.45,325.73
             32.45,325.73 31.88,325.70 31.88,325.70
             31.88,325.70 30.77,325.66 30.77,325.66
             30.77,325.66 29.66,325.53 29.66,325.53
             29.66,325.53 28.57,325.31 28.57,325.31
             28.57,325.31 27.50,325.01 27.50,325.01
             27.50,325.01 26.46,324.63 26.46,324.63
             26.46,324.63 25.45,324.16 25.45,324.16
             25.45,324.16 24.48,323.62 24.48,323.62
             24.48,323.62 23.55,323.00 23.55,323.00
             23.55,323.00 22.68,322.31 22.68,322.31
             22.68,322.31 21.86,321.56 21.86,321.56
             21.86,321.56 21.10,320.74 21.10,320.74
             21.10,320.74 20.42,319.86 20.42,319.86
             20.42,319.86 19.80,318.94 19.80,318.94
             19.80,318.94 19.26,317.97 19.26,317.97
             19.26,317.97 18.79,316.96 18.79,316.96
             18.79,316.96 18.41,315.91 18.41,315.91
             18.41,315.91 18.10,314.85 18.10,314.85
             18.10,314.85 17.89,313.75 17.89,313.75
             17.89,313.75 17.75,312.65 17.75,312.65
             17.75,312.65 17.71,311.54 17.71,311.54
             17.71,311.54 17.71,31.88 17.71,31.88
             17.71,31.88 17.75,30.76 17.75,30.76
             17.75,30.76 17.88,29.66 17.88,29.66
             17.88,29.66 18.10,28.57 18.10,28.57
             18.10,28.57 18.40,27.50 18.40,27.50
             18.40,27.50 18.78,26.45 18.78,26.45
             18.78,26.45 19.25,25.44 19.25,25.44
             19.25,25.44 19.79,24.47 19.79,24.47
             19.79,24.47 20.41,23.55 20.41,23.55
             20.41,23.55 21.10,22.67 21.10,22.67
             21.10,22.67 21.86,21.86 21.86,21.86
             21.86,21.86 22.67,21.10 22.67,21.10
             22.67,21.10 23.55,20.41 23.55,20.41
             23.55,20.41 24.47,19.79 24.47,19.79
             24.47,19.79 25.44,19.25 25.44,19.25
             25.44,19.25 26.45,18.79 26.45,18.79
             26.45,18.79 27.49,18.40 27.49,18.40
             27.49,18.40 28.56,18.10 28.56,18.10
             28.56,18.10 29.65,17.88 29.65,17.88
             29.65,17.88 30.76,17.75 30.76,17.75
             30.76,17.75 31.87,17.71 31.87,17.71
             31.87,17.71 560.13,17.71 560.13,17.71
             560.13,17.71 561.24,17.75 561.24,17.75
             561.24,17.75 562.35,17.88 562.35,17.88
             562.35,17.88 563.44,18.10 563.44,18.10
             563.44,18.10 564.51,18.40 564.51,18.40
             564.51,18.40 565.55,18.79 565.55,18.79
             565.55,18.79 566.56,19.25 566.56,19.25
             566.56,19.25 567.53,19.79 567.53,19.79
             567.53,19.79 568.45,20.41 568.45,20.41
             568.45,20.41 569.33,21.10 569.33,21.10
             569.33,21.10 570.15,21.86 570.15,21.86
             570.15,21.86 570.90,22.67 570.90,22.67
             570.90,22.67 571.59,23.55 571.59,23.55
             571.59,23.55 572.21,24.47 572.21,24.47
             572.21,24.47 572.75,25.44 572.75,25.44
             572.75,25.44 573.22,26.45 573.22,26.45
             573.22,26.45 573.60,27.50 573.60,27.50
             573.60,27.50 573.90,28.57 573.90,28.57
             573.90,28.57 574.12,29.66 574.12,29.66
             574.12,29.66 574.25,30.76 574.25,30.76
             574.25,30.76 574.29,31.88 574.29,31.88
             574.29,31.88 574.32,403.92 574.32,403.92
             574.32,403.92 574.28,405.15 574.28,405.15
             574.28,405.15 574.15,406.26 574.15,406.26
             574.15,406.26 573.93,407.35 573.93,407.35
             573.93,407.35 573.63,408.42 573.63,408.42
             573.63,408.42 573.25,409.46 573.25,409.46
             573.25,409.46 572.78,410.47 572.78,410.47
             572.78,410.47 572.27,411.40 572.27,411.40
             572.27,411.40 498.00,540.36 498.00,540.36
             498.00,540.36 494.73,542.82 494.73,542.82
             494.73,542.82 490.55,544.73 490.55,544.73
             490.55,544.73 487.00,545.55 487.00,545.55
             487.00,545.55 483.09,545.36 483.09,545.36
             483.09,545.36 479.45,544.45 479.45,544.45
             479.45,544.45 477.55,543.27 477.55,543.27
             477.55,543.27 342.75,465.75 342.75,465.75
             342.75,465.75 340.94,463.50 340.94,463.50
             340.94,463.50 338.88,460.81 338.88,460.81
             338.88,460.81 337.63,457.75 337.63,457.75
             337.63,457.75 336.94,454.50 336.94,454.50
             336.94,454.50 336.88,451.19 336.88,451.19
             336.88,451.19 337.94,448.13 337.94,448.13
             337.94,448.13 339.13,445.25 339.13,445.25
             339.13,445.25 395.10,347.88 395.10,347.88
             395.10,347.88 395.35,347.45 395.35,347.45 Z
           M 559.98,24.21
           C 559.98,24.21 558.26,25.09 558.26,25.09
             558.26,25.09 556.88,26.46 556.88,26.46
             556.88,26.46 556.01,28.19 556.01,28.19
             556.01,28.19 555.70,30.11 555.70,30.11
             555.70,30.11 556.01,32.02 556.01,32.02
             556.01,32.02 556.88,33.75 556.88,33.75
             556.88,33.75 558.26,35.12 558.26,35.12
             558.26,35.12 559.98,36.00 559.98,36.00
             559.98,36.00 561.90,36.30 561.90,36.30
             561.90,36.30 563.81,36.00 563.81,36.00
             563.81,36.00 565.54,35.12 565.54,35.12
             565.54,35.12 566.91,33.75 566.91,33.75
             566.91,33.75 567.79,32.02 567.79,32.02
             567.79,32.02 568.10,30.11 568.10,30.11
             568.10,30.11 567.79,28.19 567.79,28.19
             567.79,28.19 566.91,26.46 566.91,26.46
             566.91,26.46 565.54,25.09 565.54,25.09
             565.54,25.09 563.81,24.21 563.81,24.21
             563.81,24.21 561.90,23.91 561.90,23.91
             561.90,23.91 559.98,24.21 559.98,24.21 Z
           M 558.20,397.91
           C 558.20,397.91 556.47,398.79 556.47,398.79
             556.47,398.79 555.10,400.16 555.10,400.16
             555.10,400.16 554.22,401.89 554.22,401.89
             554.22,401.89 553.91,403.80 553.91,403.80
             553.91,403.80 554.22,405.72 554.22,405.72
             554.22,405.72 555.10,407.45 555.10,407.45
             555.10,407.45 556.47,408.82 556.47,408.82
             556.47,408.82 558.20,409.70 558.20,409.70
             558.20,409.70 560.11,410.00 560.11,410.00
             560.11,410.00 562.03,409.70 562.03,409.70
             562.03,409.70 563.76,408.82 563.76,408.82
             563.76,408.82 565.13,407.45 565.13,407.45
             565.13,407.45 566.00,405.72 566.00,405.72
             566.00,405.72 566.31,403.80 566.31,403.80
             566.31,403.80 566.00,401.89 566.00,401.89
             566.00,401.89 565.13,400.16 565.13,400.16
             565.13,400.16 563.76,398.79 563.76,398.79
             563.76,398.79 562.03,397.91 562.03,397.91
             562.03,397.91 560.11,397.61 560.11,397.61
             560.11,397.61 558.20,397.91 558.20,397.91 Z
           M 347.65,448.00
           C 347.65,448.00 345.92,448.88 345.92,448.88
             345.92,448.88 344.55,450.25 344.55,450.25
             344.55,450.25 343.67,451.98 343.67,451.98
             343.67,451.98 343.37,453.89 343.37,453.89
             343.37,453.89 343.67,455.81 343.67,455.81
             343.67,455.81 344.55,457.54 344.55,457.54
             344.55,457.54 345.92,458.91 345.92,458.91
             345.92,458.91 347.65,459.79 347.65,459.79
             347.65,459.79 349.57,460.09 349.57,460.09
             349.57,460.09 351.48,459.79 351.48,459.79
             351.48,459.79 353.21,458.91 353.21,458.91
             353.21,458.91 354.58,457.54 354.58,457.54
             354.58,457.54 355.46,455.81 355.46,455.81
             355.46,455.81 355.76,453.89 355.76,453.89
             355.76,453.89 355.46,451.98 355.46,451.98
             355.46,451.98 354.58,450.25 354.58,450.25
             354.58,450.25 353.21,448.88 353.21,448.88
             353.21,448.88 351.48,448.00 351.48,448.00
             351.48,448.00 349.57,447.70 349.57,447.70
             349.57,447.70 347.65,448.00 347.65,448.00 Z
           M 483.98,526.00
           C 483.98,526.00 482.26,526.88 482.26,526.88
             482.26,526.88 480.88,528.25 480.88,528.25
             480.88,528.25 480.01,529.98 480.01,529.98
             480.01,529.98 479.70,531.89 479.70,531.89
             479.70,531.89 480.01,533.81 480.01,533.81
             480.01,533.81 480.88,535.54 480.88,535.54
             480.88,535.54 482.26,536.91 482.26,536.91
             482.26,536.91 483.98,537.79 483.98,537.79
             483.98,537.79 485.90,538.09 485.90,538.09
             485.90,538.09 487.81,537.79 487.81,537.79
             487.81,537.79 489.54,536.91 489.54,536.91
             489.54,536.91 490.91,535.54 490.91,535.54
             490.91,535.54 491.79,533.81 491.79,533.81
             491.79,533.81 492.10,531.89 492.10,531.89
             492.10,531.89 491.79,529.98 491.79,529.98
             491.79,529.98 490.91,528.25 490.91,528.25
             490.91,528.25 489.54,526.88 489.54,526.88
             489.54,526.88 487.81,526.00 487.81,526.00
             487.81,526.00 485.90,525.70 485.90,525.70
             485.90,525.70 483.98,526.00 483.98,526.00 Z
           M 28.91,306.32
           C 28.91,306.32 27.18,307.20 27.18,307.20
             27.18,307.20 25.81,308.57 25.81,308.57
             25.81,308.57 24.94,310.30 24.94,310.30
             24.94,310.30 24.63,312.21 24.63,312.21
             24.63,312.21 24.94,314.13 24.94,314.13
             24.94,314.13 25.81,315.86 25.81,315.86
             25.81,315.86 27.18,317.23 27.18,317.23
             27.18,317.23 28.91,318.11 28.91,318.11
             28.91,318.11 30.83,318.32 30.83,318.32
             30.83,318.32 32.74,318.11 32.74,318.11
             32.74,318.11 34.47,317.23 34.47,317.23
             34.47,317.23 35.84,315.86 35.84,315.86
             35.84,315.86 36.72,314.13 36.72,314.13
             36.72,314.13 37.03,312.21 37.03,312.21
             37.03,312.21 36.72,310.30 36.72,310.30
             36.72,310.30 35.84,308.57 35.84,308.57
             35.84,308.57 34.47,307.20 34.47,307.20
             34.47,307.20 32.74,306.32 32.74,306.32
             32.74,306.32 30.83,306.02 30.83,306.02
             30.83,306.02 28.91,306.32 28.91,306.32 Z
           M 28.19,24.21
           C 28.19,24.21 26.46,25.09 26.46,25.09
             26.46,25.09 25.09,26.46 25.09,26.46
             25.09,26.46 24.21,28.19 24.21,28.19
             24.21,28.19 23.90,30.11 23.90,30.11
             23.90,30.11 24.21,32.02 24.21,32.02
             24.21,32.02 25.09,33.75 25.09,33.75
             25.09,33.75 26.46,35.12 26.46,35.12
             26.46,35.12 28.19,36.00 28.19,36.00
             28.19,36.00 30.10,36.30 30.10,36.30
             30.10,36.30 32.02,36.00 32.02,36.00
             32.02,36.00 33.74,35.12 33.74,35.12
             33.74,35.12 35.12,33.75 35.12,33.75
             35.12,33.75 35.99,32.02 35.99,32.02
             35.99,32.02 36.30,30.11 36.30,30.11
             36.30,30.11 35.99,28.19 35.99,28.19
             35.99,28.19 35.12,26.46 35.12,26.46
             35.12,26.46 33.74,25.09 33.74,25.09
             33.74,25.09 32.02,24.21 32.02,24.21
             32.02,24.21 30.10,23.91 30.10,23.91
             30.10,23.91 28.19,24.21 28.19,24.21 Z" />
  <path id="switch n stab (0 kerf)"
        fill="none" stroke="black" stroke-width="1"
        d="M 64.01,243.44
           C 64.01,243.44 64.01,224.99 64.01,224.99
             64.01,224.99 54.56,224.99 54.56,224.99
             54.56,224.99 54.56,243.46 54.56,243.46
             54.56,243.46 64.01,243.44 64.01,243.44 Z
           M 73.23,310.94
           C 73.23,310.94 73.23,292.49 73.23,292.49
             73.23,292.49 63.79,292.49 63.79,292.49
             63.79,292.49 63.79,310.96 63.79,310.96
             63.79,310.96 73.23,310.94 73.23,310.94 Z
           M 103.91,98.95
           C 103.91,98.95 103.91,53.59 103.91,53.59
             103.91,53.59 48.63,53.59 48.63,53.59
             48.63,53.59 48.63,98.95 48.63,98.95
             48.63,98.95 103.91,98.95 103.91,98.95 Z
           M 120.78,166.45
           C 120.78,166.45 120.78,121.09 120.78,121.09
             120.78,121.09 65.51,121.09 65.51,121.09
             65.51,121.09 65.51,166.45 65.51,166.45
             65.51,166.45 120.78,166.45 120.78,166.45 Z
           M 129.22,233.95
           C 129.22,233.95 129.22,188.59 129.22,188.59
             129.22,188.59 73.95,188.59 73.95,188.59
             73.95,188.59 73.95,233.95 73.95,233.95
             73.95,233.95 129.22,233.95 129.22,233.95 Z
           M 146.09,301.45
           C 146.09,301.45 146.09,256.09 146.09,256.09
             146.09,256.09 90.82,256.09 90.82,256.09
             90.82,256.09 90.82,301.45 90.82,301.45
             90.82,301.45 146.09,301.45 146.09,301.45 Z
           M 148.61,243.44
           C 148.61,243.44 148.61,224.99 148.61,224.99
             148.61,224.99 139.16,224.99 139.16,224.99
             139.16,224.99 139.16,243.44 139.16,243.44
             139.16,243.44 148.61,243.44 148.61,243.44 Z
           M 171.41,98.95
           C 171.41,98.95 171.41,53.59 171.41,53.59
             171.41,53.59 116.13,53.59 116.13,53.59
             116.13,53.59 116.13,98.95 116.13,98.95
             116.13,98.95 171.41,98.95 171.41,98.95 Z
           M 173.13,310.94
           C 173.13,310.94 173.13,292.49 173.13,292.49
             173.13,292.49 163.68,292.49 163.68,292.49
             163.68,292.49 163.68,310.94 163.68,310.94
             163.68,310.94 173.13,310.94 173.13,310.94 Z
           M 205.16,166.45
           C 205.16,166.45 205.16,121.09 205.16,121.09
             205.16,121.09 149.88,121.09 149.88,121.09
             149.88,121.09 149.88,166.45 149.88,166.45
             149.88,166.45 205.16,166.45 205.16,166.45 Z
           M 222.03,233.95
           C 222.03,233.95 222.03,188.59 222.03,188.59
             222.03,188.59 166.76,188.59 166.76,188.59
             166.76,188.59 166.76,233.95 166.76,233.95
             166.76,233.95 222.03,233.95 222.03,233.95 Z
           M 238.91,98.95
           C 238.91,98.95 238.91,53.59 238.91,53.59
             238.91,53.59 183.63,53.59 183.63,53.59
             183.63,53.59 183.63,98.95 183.63,98.95
             183.63,98.95 238.91,98.95 238.91,98.95 Z
           M 255.78,301.45
           C 255.78,301.45 255.78,256.09 255.78,256.09
             255.78,256.09 200.51,256.09 200.51,256.09
             200.51,256.09 200.51,301.45 200.51,301.45
             200.51,301.45 255.78,301.45 255.78,301.45 Z
           M 272.66,166.45
           C 272.66,166.45 272.66,121.09 272.66,121.09
             272.66,121.09 217.38,121.09 217.38,121.09
             217.38,121.09 217.38,166.45 217.38,166.45
             217.38,166.45 272.66,166.45 272.66,166.45 Z
           M 289.53,233.95
           C 289.53,233.95 289.53,188.59 289.53,188.59
             289.53,188.59 234.26,188.59 234.26,188.59
             234.26,188.59 234.26,233.95 234.26,233.95
             234.26,233.95 289.53,233.95 289.53,233.95 Z
           M 306.41,98.95
           C 306.41,98.95 306.41,53.59 306.41,53.59
             306.41,53.59 251.13,53.59 251.13,53.59
             251.13,53.59 251.13,98.95 251.13,98.95
             251.13,98.95 306.41,98.95 306.41,98.95 Z
           M 323.28,301.45
           C 323.28,301.45 323.28,256.09 323.28,256.09
             323.28,256.09 268.01,256.09 268.01,256.09
             268.01,256.09 268.01,301.45 268.01,301.45
             268.01,301.45 323.28,301.45 323.28,301.45 Z
           M 340.16,166.45
           C 340.16,166.45 340.16,121.09 340.16,121.09
             340.16,121.09 284.88,121.09 284.88,121.09
             284.88,121.09 284.88,166.45 284.88,166.45
             284.88,166.45 340.16,166.45 340.16,166.45 Z
           M 357.03,233.95
           C 357.03,233.95 357.03,188.59 357.03,188.59
             357.03,188.59 301.76,188.59 301.76,188.59
             301.76,188.59 301.76,233.95 301.76,233.95
             301.76,233.95 357.03,233.95 357.03,233.95 Z
           M 373.91,98.95
           C 373.91,98.95 373.91,53.59 373.91,53.59
             373.91,53.59 318.63,53.59 318.63,53.59
             318.63,53.59 318.63,98.95 318.63,98.95
             318.63,98.95 373.91,98.95 373.91,98.95 Z
           M 390.78,301.45
           C 390.78,301.45 390.78,256.09 390.78,256.09
             390.78,256.09 335.51,256.09 335.51,256.09
             335.51,256.09 335.51,301.45 335.51,301.45
             335.51,301.45 390.78,301.45 390.78,301.45 Z
           M 407.66,166.45
           C 407.66,166.45 407.66,121.09 407.66,121.09
             407.66,121.09 352.38,121.09 352.38,121.09
             352.38,121.09 352.38,166.45 352.38,166.45
             352.38,166.45 407.66,166.45 407.66,166.45 Z
           M 424.53,233.95
           C 424.53,233.95 424.53,188.59 424.53,188.59
             424.53,188.59 369.26,188.59 369.26,188.59
             369.26,188.59 369.26,233.95 369.26,233.95
             369.26,233.95 424.53,233.95 424.53,233.95 Z
           M 441.41,98.95
           C 441.41,98.95 441.41,53.59 441.41,53.59
             441.41,53.59 386.13,53.59 386.13,53.59
             386.13,53.59 386.13,98.95 386.13,98.95
             386.13,98.95 441.41,98.95 441.41,98.95 Z
           M 424.11,471.33
           C 424.11,471.33 376.24,443.69 376.24,443.69
             376.24,443.69 398.91,404.41 398.91,404.41
             398.91,404.41 446.78,432.05 446.78,432.05
             446.78,432.05 424.11,471.33 424.11,471.33 Z
           M 458.28,301.45
           C 458.28,301.45 458.28,256.09 458.28,256.09
             458.28,256.09 403.01,256.09 403.01,256.09
             403.01,256.09 403.01,301.45 403.01,301.45
             403.01,301.45 458.28,301.45 458.28,301.45 Z
           M 475.16,166.45
           C 475.16,166.45 475.16,121.09 475.16,121.09
             475.16,121.09 419.88,121.09 419.88,121.09
             419.88,121.09 419.88,166.45 419.88,166.45
             419.88,166.45 475.16,166.45 475.16,166.45 Z
           M 457.86,412.87
           C 457.86,412.87 409.99,385.24 409.99,385.24
             409.99,385.24 432.66,345.95 432.66,345.95
             432.66,345.95 480.53,373.59 480.53,373.59
             480.53,373.59 457.86,412.87 457.86,412.87 Z
           M 492.03,233.95
           C 492.03,233.95 492.03,188.59 492.03,188.59
             492.03,188.59 436.76,188.59 436.76,188.59
             436.76,188.59 436.76,233.95 436.76,233.95
             436.76,233.95 492.03,233.95 492.03,233.95 Z
           M 487.39,505.83
           C 487.39,505.83 471.39,496.60 471.39,496.60
             471.39,496.60 476.11,488.42 476.11,488.42
             476.11,488.42 492.09,497.64 492.09,497.64
             492.09,497.64 487.39,505.83 487.39,505.83 Z
           M 508.91,98.95
           C 508.91,98.95 508.91,53.59 508.91,53.59
             508.91,53.59 453.63,53.59 453.63,53.59
             453.63,53.59 453.63,98.95 453.63,98.95
             453.63,98.95 508.91,98.95 508.91,98.95 Z
           M 492.66,477.67
           C 492.66,477.67 453.38,454.99 453.38,454.99
             453.38,454.99 481.02,407.12 481.02,407.12
             481.02,407.12 520.30,429.80 520.30,429.80
             520.30,429.80 492.66,477.67 492.66,477.67 Z
           M 525.78,301.45
           C 525.78,301.45 525.78,256.09 525.78,256.09
             525.78,256.09 470.51,256.09 470.51,256.09
             470.51,256.09 470.51,301.45 470.51,301.45
             470.51,301.45 525.78,301.45 525.78,301.45 Z
           M 537.31,419.31
           C 537.31,419.31 521.34,410.09 521.34,410.09
             521.34,410.09 526.06,401.91 526.06,401.91
             526.06,401.91 542.04,411.13 542.04,411.13
             542.04,411.13 537.31,419.31 537.31,419.31 Z" />
</svg>
