<?xml version="1.0" encoding="UTF-8" standalone="no"?>
<!DOCTYPE svg PUBLIC "-//W3C//DTD SVG 20010904//EN"
              "http://www.w3.org/TR/2001/REC-SVG-20010904/DTD/svg10.dtd">

<svg xmlns="http://www.w3.org/2000/svg"
     width="6.57778in" height="6.22222in"
     viewBox="0 0 592 560">
  <path id="                  "
        fill="none" stroke="black" stroke-width="1"
        d="M 395.35,347.45
           C 395.35,347.45 395.90,346.48 395.90,346.48
             395.90,346.48 396.36,345.47 396.36,345.47
             396.36,345.47 396.75,344.43 396.75,344.43
             396.75,344.43 397.05,343.36 397.05,343.36
             397.05,343.36 397.27,342.27 397.27,342.27
             397.27,342.27 397.40,341.16 397.40,341.16
             397.40,341.16 397.44,340.05 397.44,340.05
             397.44,340.05 397.40,338.95 397.40,338.95
             397.40,338.95 397.27,337.85 397.27,337.85
             397.27,337.85 397.05,336.76 397.05,336.76
             397.05,336.76 396.75,335.69 396.75,335.69
             396.75,335.69 396.37,334.64 396.37,334.64
             396.37,334.64 395.90,333.63 395.90,333.63
             395.90,333.63 395.36,332.66 395.36,332.66
             395.36,332.66 394.74,331.74 394.74,331.74
             394.74,331.74 394.05,330.86 394.05,330.86
             394.05,330.86 393.30,330.05 393.30,330.05
             393.30,330.05 392.48,329.29 392.48,329.29
             392.48,329.29 391.60,328.60 391.60,328.60
             391.60,328.60 390.68,327.98 390.68,327.98
             390.68,327.98 389.71,327.44 389.71,327.44
             389.71,327.44 388.70,326.97 388.70,326.97
             388.70,326.97 387.66,326.59 387.66,326.59
             387.66,326.59 386.59,326.29 386.59,326.29
             386.59,326.29 385.50,326.07 385.50,326.07
             385.50,326.07 384.39,325.94 384.39,325.94
             384.39,325.94 383.28,325.89 383.28,325.89
             383.28,325.89 380.79,325.89 380.79,325.89
             380.79,325.89 32.45,325.73 32.45,325.73
             32.45,325.73 31.88,325.70 31.88,325.70
             31.88,325.70 30.77,325.66 30.77,325.66
             30.77,325.66 29.66,325.53 29.66,325.53
             29.66,325.53 28.57,325.31 28.57,325.31
             28.57,325.31 27.50,325.01 27.50,325.01
             27.50,325.01 26.46,324.63 26.46,324.63
             26.46,324.63 25.45,324.16 25.45,324.16
             25.45,324.16 24.48,323.62 24.48,323.62
             24.48,323.62 23.55,323.00 23.55,323.00
             23.55,323.00 22.68,322.31 22.68,322.31
             22.68,322.31 21.86,321.56 21.86,321.56
             21.86,321.56 21.10,320.74 21.10,320.74
             21.10,320.74 20.42,319.86 20.42,319.86
             20.42,319.86 19.80,318.94 19.80,318.94
             19.80,318.94 19.26,317.97 19.26,317.97
             19.26,317.97 18.79,316.96 18.79,316.96
             18.79,316.96 18.41,315.91 18.41,315.91
             18.41,315.91 18.10,314.85 18.10,314.85
             18.10,314.85 17.89,313.75 17.89,313.75
             17.89,313.75 17.75,312.65 17.75,312.65
             17.75,312.65 17.71,311.54 17.71,311.54
             17.71,311.54 17.71,31.88 17.71,31.88
             17.71,31.88 17.75,30.76 17.75,30.76
             17.75,30.76 17.88,29.66 17.88,29.66
             17.88,29.66 18.10,28.57 18.10,28.57
             18.10,28.57 18.40,27.50 18.40,27.50
             18.40,27.50 18.78,26.45 18.78,26.45
             18.78,26.45 19.25,25.44 19.25,25.44
             19.25,25.44 19.79,24.47 19.79,24.47
             19.79,24.47 20.41,23.55 20.41,23.55
             20.41,23.55 21.10,22.67 21.10,22.67
             21.10,22.67 21.86,21.86 21.86,21.86
             21.86,21.86 22.67,21.10 22.67,21.10
             22.67,21.10 23.55,20.41 23.55,20.41
             23.55,20.41 24.47,19.79 24.47,19.79
             24.47,19.79 25.44,19.25 25.44,19.25
             25.44,19.25 26.45,18.79 26.45,18.79
             26.45,18.79 27.49,18.40 27.49,18.40
             27.49,18.40 28.56,18.10 28.56,18.10
             28.56,18.10 29.65,17.88 29.65,17.88
             29.65,17.88 30.76,17.75 30.76,17.75
             30.76,17.75 31.87,17.71 31.87,17.71
             31.87,17.71 560.13,17.71 560.13,17.71
             560.13,17.71 561.24,17.75 561.24,17.75
             561.24,17.75 562.35,17.88 562.35,17.88
             562.35,17.88 563.44,18.10 563.44,18.10
             563.44,18.10 564.51,18.40 564.51,18.40
             564.51,18.40 565.55,18.79 565.55,18.79
             565.55,18.79 566.56,19.25 566.56,19.25
             566.56,19.25 567.53,19.79 567.53,19.79
             567.53,19.79 568.45,20.41 568.45,20.41
             568.45,20.41 569.33,21.10 569.33,21.10
             569.33,21.10 570.15,21.86 570.15,21.86
             570.15,21.86 570.90,22.67 570.90,22.67
             570.90,22.67 571.59,23.55 571.59,23.55
             571.59,23.55 572.21,24.47 572.21,24.47
             572.21,24.47 572.75,25.44 572.75,25.44
             572.75,25.44 573.22,26.45 573.22,26.45
             573.22,26.45 573.60,27.50 573.60,27.50
             573.60,27.50 573.90,28.57 573.90,28.57
             573.90,28.57 574.12,29.66 574.12,29.66
             574.12,29.66 574.25,30.76 574.25,30.76
             574.25,30.76 574.29,31.88 574.29,31.88
             574.29,31.88 574.32,403.92 574.32,403.92
             574.32,403.92 574.28,405.15 574.28,405.15
             574.28,405.15 574.15,406.26 574.15,406.26
             574.15,406.26 573.93,407.35 573.93,407.35
             573.93,407.35 573.63,408.42 573.63,408.42
             573.63,408.42 573.25,409.46 573.25,409.46
             573.25,409.46 572.78,410.47 572.78,410.47
             572.78,410.47 572.27,411.40 572.27,411.40
             572.27,411.40 498.00,540.36 498.00,540.36
             498.00,540.36 494.73,542.82 494.73,542.82
             494.73,542.82 490.55,544.73 490.55,544.73
             490.55,544.73 487.00,545.55 487.00,545.55
             487.00,545.55 483.09,545.36 483.09,545.36
             483.09,545.36 479.45,544.45 479.45,544.45
             479.45,544.45 477.55,543.27 477.55,543.27
             477.55,543.27 342.75,465.75 342.75,465.75
             342.75,465.75 340.94,463.50 340.94,463.50
             340.94,463.50 338.88,460.81 338.88,460.81
             338.88,460.81 337.63,457.75 337.63,457.75
             337.63,457.75 336.94,454.50 336.94,454.50
             336.94,454.50 336.88,451.19 336.88,451.19
             336.88,451.19 337.94,448.13 337.94,448.13
             337.94,448.13 339.13,445.25 339.13,445.25
             339.13,445.25 395.10,347.88 395.10,347.88
             395.10,347.88 395.35,347.45 395.35,347.45 Z
           M 559.98,24.21
           C 559.98,24.21 558.26,25.09 558.26,25.09
             558.26,25.09 556.88,26.46 556.88,26.46
             556.88,26.46 556.01,28.19 556.01,28.19
             556.01,28.19 555.70,30.11 555.70,30.11
             555.70,30.11 556.01,32.02 556.01,32.02
             556.01,32.02 556.88,33.75 556.88,33.75
             556.88,33.75 558.26,35.12 558.26,35.12
             558.26,35.12 559.98,36.00 559.98,36.00
             559.98,36.00 561.90,36.30 561.90,36.30
             561.90,36.30 563.81,36.00 563.81,36.00
             563.81,36.00 565.54,35.12 565.54,35.12
             565.54,35.12 566.91,33.75 566.91,33.75
             566.91,33.75 567.79,32.02 567.79,32.02
             567.79,32.02 568.10,30.11 568.10,30.11
             568.10,30.11 567.79,28.19 567.79,28.19
             567.79,28.19 566.91,26.46 566.91,26.46
             566.91,26.46 565.54,25.09 565.54,25.09
             565.54,25.09 563.81,24.21 563.81,24.21
             563.81,24.21 561.90,23.91 561.90,23.91
             561.90,23.91 559.98,24.21 559.98,24.21 Z
           M 558.20,397.91
           C 558.20,397.91 556.47,398.79 556.47,398.79
             556.47,398.79 555.10,400.16 555.10,400.16
             555.10,400.16 554.22,401.89 554.22,401.89
             554.22,401.89 553.91,403.80 553.91,403.80
             553.91,403.80 554.22,405.72 554.22,405.72
             554.22,405.72 555.10,407.45 555.10,407.45
             555.10,407.45 556.47,408.82 556.47,408.82
             556.47,408.82 558.20,409.70 558.20,409.70
             558.20,409.70 560.11,410.00 560.11,410.00
             560.11,410.00 562.03,409.70 562.03,409.70
             562.03,409.70 563.76,408.82 563.76,408.82
             563.76,408.82 565.13,407.45 565.13,407.45
             565.13,407.45 566.00,405.72 566.00,405.72
             566.00,405.72 566.31,403.80 566.31,403.80
             566.31,403.80 566.00,401.89 566.00,401.89
             566.00,401.89 565.13,400.16 565.13,400.16
             565.13,400.16 563.76,398.79 563.76,398.79
             563.76,398.79 562.03,397.91 562.03,397.91
             562.03,397.91 560.11,397.61 560.11,397.61
             560.11,397.61 558.20,397.91 558.20,397.91 Z
           M 347.65,448.00
           C 347.65,448.00 345.92,448.88 345.92,448.88
             345.92,448.88 344.55,450.25 344.55,450.25
             344.55,450.25 343.67,451.98 343.67,451.98
             343.67,451.98 343.37,453.89 343.37,453.89
             343.37,453.89 343.67,455.81 343.67,455.81
             343.67,455.81 344.55,457.54 344.55,457.54
             344.55,457.54 345.92,458.91 345.92,458.91
             345.92,458.91 347.65,459.79 347.65,459.79
             347.65,459.79 349.57,460.09 349.57,460.09
             349.57,460.09 351.48,459.79 351.48,459.79
             351.48,459.79 353.21,458.91 353.21,458.91
             353.21,458.91 354.58,457.54 354.58,457.54
             354.58,457.54 355.46,455.81 355.46,455.81
             355.46,455.81 355.76,453.89 355.76,453.89
             355.76,453.89 355.46,451.98 355.46,451.98
             355.46,451.98 354.58,450.25 354.58,450.25
             354.58,450.25 353.21,448.88 353.21,448.88
             353.21,448.88 351.48,448.00 351.48,448.00
             351.48,448.00 349.57,447.70 349.57,447.70
             349.57,447.70 347.65,448.00 347.65,448.00 Z
           M 483.98,526.00
           C 483.98,526.00 482.26,526.88 482.26,526.88
             482.26,526.88 480.88,528.25 480.88,528.25
             480.88,528.25 480.01,529.98 480.01,529.98
             480.01,529.98 479.70,531.89 479.70,531.89
             479.70,531.89 480.01,533.81 480.01,533.81
             480.01,533.81 480.88,535.54 480.88,535.54
             480.88,535.54 482.26,536.91 482.26,536.91
             482.26,536.91 483.98,537.79 483.98,537.79
             483.98,537.79 485.90,538.09 485.90,538.09
             485.90,538.09 487.81,537.79 487.81,537.79
             487.81,537.79 489.54,536.91 489.54,536.91
             489.54,536.91 490.91,535.54 490.91,535.54
             490.91,535.54 491.79,533.81 491.79,533.81
             491.79,533.81 492.10,531.89 492.10,531.89
             492.10,531.89 491.79,529.98 491.79,529.98
             491.79,529.98 490.91,528.25 490.91,528.25
             490.91,528.25 489.54,526.88 489.54,526.88
             489.54,526.88 487.81,526.00 487.81,526.00
             487.81,526.00 485.90,525.70 485.90,525.70
             485.90,525.70 483.98,526.00 483.98,526.00 Z
           M 28.91,306.32
           C 28.91,306.32 27.18,307.20 27.18,307.20
             27.18,307.20 25.81,308.57 25.81,308.57
             25.81,308.57 24.94,310.30 24.94,310.30
             24.94,310.30 24.63,312.21 24.63,312.21
             24.63,312.21 24.94,314.13 24.94,314.13
             24.94,314.13 25.81,315.86 25.81,315.86
             25.81,315.86 27.18,317.23 27.18,317.23
             27.18,317.23 28.91,318.11 28.91,318.11
             28.91,318.11 30.83,318.32 30.83,318.32
             30.83,318.32 32.74,318.11 32.74,318.11
             32.74,318.11 34.47,317.23 34.47,317.23
             34.47,317.23 35.84,315.86 35.84,315.86
             35.84,315.86 36.72,314.13 36.72,314.13
             36.72,314.13 37.03,312.21 37.03,312.21
             37.03,312.21 36.72,310.30 36.72,310.30
             36.72,310.30 35.84,308.57 35.84,308.57
             35.84,308.57 34.47,307.20 34.47,307.20
             34.47,307.20 32.74,306.32 32.74,306.32
             32.74,306.32 30.83,306.02 30.83,306.02
             30.83,306.02 28.91,306.32 28.91,306.32 Z
           M 28.19,24.21
           C 28.19,24.21 26.46,25.09 26.46,25.09
             26.46,25.09 25.09,26.46 25.09,26.46
             25.09,26.46 24.21,28.19 24.21,28.19
             24.21,28.19 23.90,30.11 23.90,30.11
             23.90,30.11 24.21,32.02 24.21,32.02
             24.21,32.02 25.09,33.75 25.09,33.75
             25.09,33.75 26.46,35.12 26.46,35.12
             26.46,35.12 28.19,36.00 28.19,36.00
             28.19,36.00 30.10,36.30 30.10,36.30
             30.10,36.30 32.02,36.00 32.02,36.00
             32.02,36.00 33.74,35.12 33.74,35.12
             33.74,35.12 35.12,33.75 35.12,33.75
             35.12,33.75 35.99,32.02 35.99,32.02
             35.99,32.02 36.30,30.11 36.30,30.11
             36.30,30.11 35.99,28.19 35.99,28.19
             35.99,28.19 35.12,26.46 35.12,26.46
             35.12,26.46 33.74,25.09 33.74,25.09
             33.74,25.09 32.02,24.21 32.02,24.21
             32.02,24.21 30.10,23.91 30.10,23.91
             30.10,23.91 28.19,24.21 28.19,24.21 Z" />
  <path id="Imported Path #33"
        fill="none" stroke="black" stroke-width="1"
        d="M 63.97,243.34
           C 63.97,243.34 63.97,224.90 63.97,224.90
             63.97,224.90 54.53,224.90 54.53,224.90
             54.53,224.90 54.53,243.36 54.53,243.36
             54.53,243.36 63.97,243.34 63.97,243.34 Z" />
  <path id="Imported Path #32"
        fill="none" stroke="black" stroke-width="1"
        d="M 73.19,310.81
           C 73.19,310.81 73.19,292.37 73.19,292.37
             73.19,292.37 63.75,292.37 63.75,292.37
             63.75,292.37 63.75,310.83 63.75,310.83
             63.75,310.83 73.19,310.81 73.19,310.81 Z" />
  <path id="Imported Path #31"
        fill="none" stroke="black" stroke-width="1"
        d="M 103.85,98.90
           C 103.85,98.90 103.85,53.57 103.85,53.57
             103.85,53.57 48.60,53.57 48.60,53.57
             48.60,53.57 48.60,98.90 48.60,98.90
             48.60,98.90 103.85,98.90 103.85,98.90 Z" />
  <path id="Imported Path #30"
        fill="none" stroke="black" stroke-width="1"
        d="M 120.71,166.37
           C 120.71,166.37 120.71,121.04 120.71,121.04
             120.71,121.04 65.47,121.04 65.47,121.04
             65.47,121.04 65.47,166.37 65.47,166.37
             65.47,166.37 120.71,166.37 120.71,166.37 Z" />
  <path id="Imported Path #29"
        fill="none" stroke="black" stroke-width="1"
        d="M 129.15,233.85
           C 129.15,233.85 129.15,188.51 129.15,188.51
             129.15,188.51 73.90,188.51 73.90,188.51
             73.90,188.51 73.90,233.85 73.90,233.85
             73.90,233.85 129.15,233.85 129.15,233.85 Z" />
  <path id="Imported Path #28"
        fill="none" stroke="black" stroke-width="1"
        d="M 146.01,301.32
           C 146.01,301.32 146.01,255.98 146.01,255.98
             146.01,255.98 90.77,255.98 90.77,255.98
             90.77,255.98 90.77,301.32 90.77,301.32
             90.77,301.32 146.01,301.32 146.01,301.32 Z" />
  <path id="Imported Path #27"
        fill="none" stroke="black" stroke-width="1"
        d="M 148.52,243.34
           C 148.52,243.34 148.52,224.90 148.52,224.90
             148.52,224.90 139.08,224.90 139.08,224.90
             139.08,224.90 139.08,243.34 139.08,243.34
             139.08,243.34 148.52,243.34 148.52,243.34 Z" />
  <path id="Imported Path #26"
        fill="none" stroke="black" stroke-width="1"
        d="M 171.31,98.90
           C 171.31,98.90 171.31,53.57 171.31,53.57
             171.31,53.57 116.07,53.57 116.07,53.57
             116.07,53.57 116.07,98.90 116.07,98.90
             116.07,98.90 171.31,98.90 171.31,98.90 Z" />
  <path id="Imported Path #25"
        fill="none" stroke="black" stroke-width="1"
        d="M 173.03,310.81
           C 173.03,310.81 173.03,292.37 173.03,292.37
             173.03,292.37 163.59,292.37 163.59,292.37
             163.59,292.37 163.59,310.81 163.59,310.81
             163.59,310.81 173.03,310.81 173.03,310.81 Z" />
  <path id="Imported Path #24"
        fill="none" stroke="black" stroke-width="1"
        d="M 205.04,166.37
           C 205.04,166.37 205.04,121.04 205.04,121.04
             205.04,121.04 149.80,121.04 149.80,121.04
             149.80,121.04 149.80,166.37 149.80,166.37
             149.80,166.37 205.04,166.37 205.04,166.37 Z" />
  <path id="Imported Path #23"
        fill="none" stroke="black" stroke-width="1"
        d="M 221.90,233.85
           C 221.90,233.85 221.90,188.51 221.90,188.51
             221.90,188.51 166.66,188.51 166.66,188.51
             166.66,188.51 166.66,233.85 166.66,233.85
             166.66,233.85 221.90,233.85 221.90,233.85 Z" />
  <path id="Imported Path #22"
        fill="none" stroke="black" stroke-width="1"
        d="M 238.77,98.90
           C 238.77,98.90 238.77,53.57 238.77,53.57
             238.77,53.57 183.53,53.57 183.53,53.57
             183.53,53.57 183.53,98.90 183.53,98.90
             183.53,98.90 238.77,98.90 238.77,98.90 Z" />
  <path id="Imported Path #21"
        fill="none" stroke="black" stroke-width="1"
        d="M 255.64,301.32
           C 255.64,301.32 255.64,255.98 255.64,255.98
             255.64,255.98 200.39,255.98 200.39,255.98
             200.39,255.98 200.39,301.32 200.39,301.32
             200.39,301.32 255.64,301.32 255.64,301.32 Z" />
  <path id="Imported Path #20"
        fill="none" stroke="black" stroke-width="1"
        d="M 272.50,166.37
           C 272.50,166.37 272.50,121.04 272.50,121.04
             272.50,121.04 217.26,121.04 217.26,121.04
             217.26,121.04 217.26,166.37 217.26,166.37
             217.26,166.37 272.50,166.37 272.50,166.37 Z" />
  <path id="Imported Path #19"
        fill="none" stroke="black" stroke-width="1"
        d="M 289.37,233.85
           C 289.37,233.85 289.37,188.51 289.37,188.51
             289.37,188.51 234.12,188.51 234.12,188.51
             234.12,188.51 234.12,233.85 234.12,233.85
             234.12,233.85 289.37,233.85 289.37,233.85 Z" />
  <path id="Imported Path #18"
        fill="none" stroke="black" stroke-width="1"
        d="M 306.23,98.90
           C 306.23,98.90 306.23,53.57 306.23,53.57
             306.23,53.57 250.99,53.57 250.99,53.57
             250.99,53.57 250.99,98.90 250.99,98.90
             250.99,98.90 306.23,98.90 306.23,98.90 Z" />
  <path id="Imported Path #17"
        fill="none" stroke="black" stroke-width="1"
        d="M 323.10,301.32
           C 323.10,301.32 323.10,255.98 323.10,255.98
             323.10,255.98 267.86,255.98 267.86,255.98
             267.86,255.98 267.86,301.32 267.86,301.32
             267.86,301.32 323.10,301.32 323.10,301.32 Z" />
  <path id="Imported Path #16"
        fill="none" stroke="black" stroke-width="1"
        d="M 339.96,166.37
           C 339.96,166.37 339.96,121.04 339.96,121.04
             339.96,121.04 284.72,121.04 284.72,121.04
             284.72,121.04 284.72,166.37 284.72,166.37
             284.72,166.37 339.96,166.37 339.96,166.37 Z" />
  <path id="Imported Path #15"
        fill="none" stroke="black" stroke-width="1"
        d="M 356.83,233.85
           C 356.83,233.85 356.83,188.51 356.83,188.51
             356.83,188.51 301.58,188.51 301.58,188.51
             301.58,188.51 301.58,233.85 301.58,233.85
             301.58,233.85 356.83,233.85 356.83,233.85 Z" />
  <path id="Imported Path #14"
        fill="none" stroke="black" stroke-width="1"
        d="M 373.69,98.90
           C 373.69,98.90 373.69,53.57 373.69,53.57
             373.69,53.57 318.45,53.57 318.45,53.57
             318.45,53.57 318.45,98.90 318.45,98.90
             318.45,98.90 373.69,98.90 373.69,98.90 Z" />
  <path id="Imported Path #13"
        fill="none" stroke="black" stroke-width="1"
        d="M 390.56,301.32
           C 390.56,301.32 390.56,255.98 390.56,255.98
             390.56,255.98 335.32,255.98 335.32,255.98
             335.32,255.98 335.32,301.32 335.32,301.32
             335.32,301.32 390.56,301.32 390.56,301.32 Z" />
  <path id="Imported Path #12"
        fill="none" stroke="black" stroke-width="1"
        d="M 407.42,166.37
           C 407.42,166.37 407.42,121.04 407.42,121.04
             407.42,121.04 352.18,121.04 352.18,121.04
             352.18,121.04 352.18,166.37 352.18,166.37
             352.18,166.37 407.42,166.37 407.42,166.37 Z" />
  <path id="Imported Path #11"
        fill="none" stroke="black" stroke-width="1"
        d="M 424.29,233.85
           C 424.29,233.85 424.29,188.51 424.29,188.51
             424.29,188.51 369.04,188.51 369.04,188.51
             369.04,188.51 369.04,233.85 369.04,233.85
             369.04,233.85 424.29,233.85 424.29,233.85 Z" />
  <path id="Imported Path #10"
        fill="none" stroke="black" stroke-width="1"
        d="M 441.16,98.90
           C 441.16,98.90 441.16,53.57 441.16,53.57
             441.16,53.57 385.91,53.57 385.91,53.57
             385.91,53.57 385.91,98.90 385.91,98.90
             385.91,98.90 441.16,98.90 441.16,98.90 Z" />
  <path id="Imported Path #9"
        fill="none" stroke="black" stroke-width="1"
        d="M 423.86,471.12
           C 423.86,471.12 376.02,443.50 376.02,443.50
             376.02,443.50 398.68,404.24 398.68,404.24
             398.68,404.24 446.53,431.86 446.53,431.86
             446.53,431.86 423.86,471.12 423.86,471.12 Z" />
  <path id="Imported Path #8"
        fill="none" stroke="black" stroke-width="1"
        d="M 458.02,301.32
           C 458.02,301.32 458.02,255.98 458.02,255.98
             458.02,255.98 402.78,255.98 402.78,255.98
             402.78,255.98 402.78,301.32 402.78,301.32
             402.78,301.32 458.02,301.32 458.02,301.32 Z" />
  <path id="Imported Path #7"
        fill="none" stroke="black" stroke-width="1"
        d="M 474.89,166.37
           C 474.89,166.37 474.89,121.04 474.89,121.04
             474.89,121.04 419.64,121.04 419.64,121.04
             419.64,121.04 419.64,166.37 419.64,166.37
             419.64,166.37 474.89,166.37 474.89,166.37 Z" />
  <path id="Imported Path #6"
        fill="none" stroke="black" stroke-width="1"
        d="M 457.59,412.69
           C 457.59,412.69 409.75,385.07 409.75,385.07
             409.75,385.07 432.42,345.80 432.42,345.80
             432.42,345.80 480.26,373.43 480.26,373.43
             480.26,373.43 457.59,412.69 457.59,412.69 Z" />
  <path id="Imported Path #5"
        fill="none" stroke="black" stroke-width="1"
        d="M 491.75,233.85
           C 491.75,233.85 491.75,188.51 491.75,188.51
             491.75,188.51 436.51,188.51 436.51,188.51
             436.51,188.51 436.51,233.85 436.51,233.85
             436.51,233.85 491.75,233.85 491.75,233.85 Z" />
  <path id="Imported Path #4"
        fill="none" stroke="black" stroke-width="1"
        d="M 487.11,505.61
           C 487.11,505.61 471.12,496.38 471.12,496.38
             471.12,496.38 475.84,488.21 475.84,488.21
             475.84,488.21 491.81,497.43 491.81,497.43
             491.81,497.43 487.11,505.61 487.11,505.61 Z" />
  <path id="Imported Path #3"
        fill="none" stroke="black" stroke-width="1"
        d="M 508.62,98.90
           C 508.62,98.90 508.62,53.57 508.62,53.57
             508.62,53.57 453.37,53.57 453.37,53.57
             453.37,53.57 453.37,98.90 453.37,98.90
             453.37,98.90 508.62,98.90 508.62,98.90 Z" />
  <path id="Imported Path #2"
        fill="none" stroke="black" stroke-width="1"
        d="M 492.38,477.46
           C 492.38,477.46 453.13,454.79 453.13,454.79
             453.13,454.79 480.75,406.94 480.75,406.94
             480.75,406.94 520.00,429.61 520.00,429.61
             520.00,429.61 492.38,477.46 492.38,477.46 Z" />
  <path id="Imported Path #1"
        fill="none" stroke="black" stroke-width="1"
        d="M 525.48,301.32
           C 525.48,301.32 525.48,255.98 525.48,255.98
             525.48,255.98 470.24,255.98 470.24,255.98
             470.24,255.98 470.24,301.32 470.24,301.32
             470.24,301.32 525.48,301.32 525.48,301.32 Z" />
  <path id="Imported Path"
        fill="none" stroke="black" stroke-width="1"
        d="M 537.01,419.13
           C 537.01,419.13 521.04,409.91 521.04,409.91
             521.04,409.91 525.76,401.74 525.76,401.74
             525.76,401.74 541.73,410.96 541.73,410.96
             541.73,410.96 537.01,419.13 537.01,419.13 Z" />
</svg>
